<?xml version="1.0" encoding="UTF-8" standalone="no"?><!DOCTYPE svg PUBLIC "-//W3C//DTD SVG 1.1//EN" "http://www.w3.org/Graphics/SVG/1.1/DTD/svg11.dtd"><svg width="100%" height="100%" viewBox="0 0 12667 4500" version="1.1" xmlns="http://www.w3.org/2000/svg" xmlns:xlink="http://www.w3.org/1999/xlink" xml:space="preserve" xmlns:serif="http://www.serif.com/" style="fill-rule:evenodd;clip-rule:evenodd;"><path id="path2821" d="M11246.2,1613.83l1029.87,0l-0,78.194l272.725,0l-0.001,102.987l-1306.41,0l3.814,-181.181Z" style="fill:#999;stroke:#000;stroke-width:12.5px;"/><path id="path1873" d="M1019.4,1017.29l-859.041,-0c-40.457,-0 -42.48,20.229 -42.48,42.48l0,1319.58c0,-0 400.791,1495.77 453.537,1692.62c52.746,196.851 203.892,332.931 446.635,332.931l0,-2281.78l10228.9,0l0,-828.023l-9658.47,-0l0,31.017l-186.103,-0l0,-439.635c0,-521.179 -379.07,-791.611 -380.418,-792.96c-0,25.377 -2.576,867.77 -2.576,923.772Z" style="fill:#ccc;stroke:#000;stroke-width:12.5px;stroke-linejoin:round;"/><path id="path2760" d="M868.005,3835.74c-36.236,-0 -39.974,13.273 -39.974,39.974l-0,495.833c55.323,21.573 118.672,33.333 189.974,33.333l-0,-569.14l-150,-0Z" style="fill:#e5e5e5;stroke:#000;stroke-width:12.5px;"/><path id="path2765" d="M1021.91,93.551c0,22.965 -1.812,660.872 -2.213,833.724l139.453,0l-0,-701.041c-74.137,-87.517 -136.694,-132.137 -137.24,-132.683Z" style="fill:#e5e5e5;stroke:#000;stroke-width:12.5px;stroke-linejoin:round;"/><path id="path2770" d="M2326.17,96.219l0,789.589l-49.223,0l0,153.063l563.703,0l0,256.903l-771.383,0c0,0 -70.126,-138.229 -70.126,-377.6c0,-239.372 71.475,-588.483 327.029,-821.955Z" style="fill:#ccc;stroke:#000;stroke-width:12.5px;stroke-linejoin:round;"/><path id="path2786" d="M2448.42,2424.38l0.182,141.601l-123.784,0.822l-0,1839.45c-0,0 369.793,22.54 495.5,-446.605c125.707,-469.144 292.468,-1091.51 320.574,-1196.4c28.105,-104.891 95.29,-146.928 254.488,-146.928l1642.82,-0l-0,-191.945l-2589.78,0Z" style="fill:none;stroke:#000;stroke-width:12.5px;stroke-linejoin:round;"/><path id="path3177" d="M2448.42,2424.38l0.182,141.601l-123.784,0.822l-0,1839.45c-0,0 369.793,22.54 495.5,-446.605c125.707,-469.144 292.468,-1091.51 320.574,-1196.4c28.105,-104.891 95.29,-146.928 254.488,-146.928l1642.82,-0l-0,-191.945l-2589.78,0Z" style="fill:#ccc;stroke:#000;stroke-width:12.5px;"/><path id="path2813" d="M3579.85,2430.1l0,268.434c0,20.025 8.896,29.132 50.458,29.132c41.563,-0 695.722,26.175 695.722,26.175c-0,0 207.817,133.864 380.48,133.025c196.439,-0.953 325.172,-102.033 325.172,-102.033l8.106,-277.493l-1459.94,-77.241Z" style="fill:#b2b2b2;stroke:#000;stroke-width:12.5px;stroke-linejoin:round;"/><path id="path2816" d="M2324.78,3838.08l-0,568.229c-0,-0.001 89.699,5.379 195.703,-45.053c-0,-121.526 -0,-458.03 -0,-482.161c-0,-28.607 -14.792,-41.015 -41.016,-41.015c-23.042,-0 -126.305,-0 -154.687,-0Z" style="fill:#e5e5e5;stroke:#000;stroke-width:12.5px;"/><path id="path2772" d="M2841.99,1040.22l2192.78,-0l0,403.897l-2192.1,0l-0.674,-403.897Z" style="fill:#b2b2b2;stroke:#000;stroke-width:12.5px;stroke-linejoin:round;"/><path id="path2851" d="M1235.17,1798.12l0,233.303" style="fill:none;stroke:#000;stroke-width:8.33px;stroke-linecap:round;"/><path id="path3179" d="M1762.46,1798.12l0,233.303" style="fill:none;stroke:#000;stroke-width:8.33px;stroke-linecap:round;"/><path id="path3181" d="M2285.71,1798.12l0,233.303" style="fill:none;stroke:#000;stroke-width:8.33px;stroke-linecap:round;"/><path id="path3183" d="M2810.3,1798.12l-0,233.303" style="fill:none;stroke:#000;stroke-width:8.33px;stroke-linecap:round;"/><path id="path3185" d="M3334.9,1798.12l0,233.303" style="fill:none;stroke:#000;stroke-width:8.33px;stroke-linecap:round;"/><path id="path3187" d="M3859.49,1798.12l-0,233.303" style="fill:none;stroke:#000;stroke-width:8.33px;stroke-linecap:round;"/><path id="path3189" d="M4384.09,1798.12l-0,233.303" style="fill:none;stroke:#000;stroke-width:8.33px;stroke-linecap:round;"/><path id="path3191" d="M4907.33,1798.12l0,233.303" style="fill:none;stroke:#000;stroke-width:8.33px;stroke-linecap:round;"/><path id="path3193" d="M5431.93,1798.12l-0,233.303" style="fill:none;stroke:#000;stroke-width:8.33px;stroke-linecap:round;"/><path id="path3195" d="M5957.87,1798.12l0,233.303" style="fill:none;stroke:#000;stroke-width:8.33px;stroke-linecap:round;"/><path id="path3197" d="M7007.06,1798.12l0,233.303" style="fill:none;stroke:#000;stroke-width:8.33px;stroke-linecap:round;"/><path id="path3199" d="M6483.81,1798.12l0,233.303" style="fill:none;stroke:#000;stroke-width:8.33px;stroke-linecap:round;"/><path id="path3201" d="M7530.31,1798.12l0,233.303" style="fill:none;stroke:#000;stroke-width:8.33px;stroke-linecap:round;"/><path id="path3205" d="M8057.6,1798.12l-0,233.303" style="fill:none;stroke:#000;stroke-width:8.33px;stroke-linecap:round;"/><path id="path3207" d="M8580.84,1798.12l-0,233.303" style="fill:none;stroke:#000;stroke-width:8.33px;stroke-linecap:round;"/><path id="path3209" d="M9106.79,1798.12l0,233.303" style="fill:none;stroke:#000;stroke-width:8.33px;stroke-linecap:round;"/><path id="path3211" d="M9631.38,1798.12l-0,233.303" style="fill:none;stroke:#000;stroke-width:8.33px;stroke-linecap:round;"/><path id="path3213" d="M10156,1798.12l0,233.303" style="fill:none;stroke:#000;stroke-width:8.33px;stroke-linecap:round;"/><path id="path3215" d="M10680.6,1798.12l-0,233.303" style="fill:none;stroke:#000;stroke-width:8.33px;stroke-linecap:round;"/><path id="path3217" d="M1290.46,1889.7l-0,141.6" style="fill:none;stroke:#000;stroke-width:6.25px;stroke-linecap:round;"/><path id="use4899" d="M1290.46,1889.7l-0,141.6" style="fill:none;stroke:#000;stroke-width:6.25px;stroke-linecap:round;"/><path id="use4901" d="M1342.92,1889.7l0,141.6" style="fill:none;stroke:#000;stroke-width:6.25px;stroke-linecap:round;"/><path id="use4903" d="M1395.38,1889.7l0,141.6" style="fill:none;stroke:#000;stroke-width:6.25px;stroke-linecap:round;"/><path id="use4905" d="M1447.84,1889.7l-0,141.6" style="fill:none;stroke:#000;stroke-width:6.25px;stroke-linecap:round;"/><path id="use4907" d="M1500.3,1854.06l0,176.472" style="fill:none;stroke:#000;stroke-width:7.06px;stroke-linecap:round;"/><path id="use4909" d="M1552.76,1889.7l-0,141.6" style="fill:none;stroke:#000;stroke-width:6.25px;stroke-linecap:round;"/><path id="use4911" d="M1605.22,1889.7l-0,141.6" style="fill:none;stroke:#000;stroke-width:6.25px;stroke-linecap:round;"/><path id="use4913" d="M1657.68,1889.7l0,141.6" style="fill:none;stroke:#000;stroke-width:6.25px;stroke-linecap:round;"/><path id="use4915" d="M1710.14,1889.7l-0,141.6" style="fill:none;stroke:#000;stroke-width:6.25px;stroke-linecap:round;"/><path id="use4919" d="M1815.06,1889.7l0,141.6" style="fill:none;stroke:#000;stroke-width:6.25px;stroke-linecap:round;"/><path id="use4921" d="M1867.52,1889.7l0,141.6" style="fill:none;stroke:#000;stroke-width:6.25px;stroke-linecap:round;"/><path id="use4923" d="M1919.98,1889.7l0,141.6" style="fill:none;stroke:#000;stroke-width:6.25px;stroke-linecap:round;"/><path id="use4925" d="M1972.43,1889.7l0,141.6" style="fill:none;stroke:#000;stroke-width:6.25px;stroke-linecap:round;"/><path id="use4927" d="M2024.89,1854.06l-0,176.472" style="fill:none;stroke:#000;stroke-width:7.06px;stroke-linecap:round;"/><path id="use4929" d="M2077.35,1889.7l0,141.6" style="fill:none;stroke:#000;stroke-width:6.25px;stroke-linecap:round;"/><path id="use4931" d="M2129.81,1889.7l-0,141.6" style="fill:none;stroke:#000;stroke-width:6.25px;stroke-linecap:round;"/><path id="use4933" d="M2182.27,1889.7l-0,141.6" style="fill:none;stroke:#000;stroke-width:6.25px;stroke-linecap:round;"/><path id="use4935" d="M2234.73,1889.7l0,141.6" style="fill:none;stroke:#000;stroke-width:6.25px;stroke-linecap:round;"/><path id="use4939" d="M2339.65,1889.7l0,141.6" style="fill:none;stroke:#000;stroke-width:6.25px;stroke-linecap:round;"/><path id="use4941" d="M2392.11,1889.7l0,141.6" style="fill:none;stroke:#000;stroke-width:6.25px;stroke-linecap:round;"/><path id="use4943" d="M2444.57,1889.7l-0,141.6" style="fill:none;stroke:#000;stroke-width:6.25px;stroke-linecap:round;"/><path id="use4945" d="M2497.03,1889.7l0,141.6" style="fill:none;stroke:#000;stroke-width:6.25px;stroke-linecap:round;"/><path id="use4947" d="M2549.49,1854.06l-0,176.472" style="fill:none;stroke:#000;stroke-width:7.06px;stroke-linecap:round;"/><path id="use4949" d="M2601.95,1889.7l-0,141.6" style="fill:none;stroke:#000;stroke-width:6.25px;stroke-linecap:round;"/><path id="use4951" d="M2654.41,1889.7l0,141.6" style="fill:none;stroke:#000;stroke-width:6.25px;stroke-linecap:round;"/><path id="use4953" d="M2706.87,1889.7l-0,141.6" style="fill:none;stroke:#000;stroke-width:6.25px;stroke-linecap:round;"/><path id="use4955" d="M2759.33,1889.7l0,141.6" style="fill:none;stroke:#000;stroke-width:6.25px;stroke-linecap:round;"/><path id="use4959" d="M2864.24,1889.7l-0,141.6" style="fill:none;stroke:#000;stroke-width:6.25px;stroke-linecap:round;"/><path id="use4961" d="M2916.7,1889.7l0,141.6" style="fill:none;stroke:#000;stroke-width:6.25px;stroke-linecap:round;"/><path id="use4963" d="M2969.16,1889.7l-0,141.6" style="fill:none;stroke:#000;stroke-width:6.25px;stroke-linecap:round;"/><path id="use4965" d="M3021.62,1889.7l0,141.6" style="fill:none;stroke:#000;stroke-width:6.25px;stroke-linecap:round;"/><path id="use4967" d="M3074.08,1854.06l0,176.472" style="fill:none;stroke:#000;stroke-width:7.06px;stroke-linecap:round;"/><path id="use4969" d="M3126.54,1889.7l-0,141.6" style="fill:none;stroke:#000;stroke-width:6.25px;stroke-linecap:round;"/><path id="use4971" d="M3179,1889.7l0,141.6" style="fill:none;stroke:#000;stroke-width:6.25px;stroke-linecap:round;"/><path id="use4973" d="M3231.46,1889.7l0,141.6" style="fill:none;stroke:#000;stroke-width:6.25px;stroke-linecap:round;"/><path id="use4975" d="M3283.92,1889.7l-0,141.6" style="fill:none;stroke:#000;stroke-width:6.25px;stroke-linecap:round;"/><path id="use4979" d="M3388.84,1889.7l-0,141.6" style="fill:none;stroke:#000;stroke-width:6.25px;stroke-linecap:round;"/><path id="use4981" d="M3441.3,1889.7l-0,141.6" style="fill:none;stroke:#000;stroke-width:6.25px;stroke-linecap:round;"/><path id="use4983" d="M3493.76,1889.7l0,141.6" style="fill:none;stroke:#000;stroke-width:6.25px;stroke-linecap:round;"/><path id="use4985" d="M3546.22,1889.7l-0,141.6" style="fill:none;stroke:#000;stroke-width:6.25px;stroke-linecap:round;"/><path id="use4987" d="M3598.68,1854.06l0,176.472" style="fill:none;stroke:#000;stroke-width:7.06px;stroke-linecap:round;"/><path id="use4989" d="M3651.13,1889.7l0,141.6" style="fill:none;stroke:#000;stroke-width:6.25px;stroke-linecap:round;"/><path id="use4991" d="M3703.59,1889.7l-0,141.6" style="fill:none;stroke:#000;stroke-width:6.25px;stroke-linecap:round;"/><path id="use4993" d="M3756.05,1889.7l0,141.6" style="fill:none;stroke:#000;stroke-width:6.25px;stroke-linecap:round;"/><path id="use4995" d="M3808.51,1889.7l-0,141.6" style="fill:none;stroke:#000;stroke-width:6.25px;stroke-linecap:round;"/><path id="use4999" d="M3913.43,1889.7l0,141.6" style="fill:none;stroke:#000;stroke-width:6.25px;stroke-linecap:round;"/><path id="use5001" d="M3965.89,1889.7l0,141.6" style="fill:none;stroke:#000;stroke-width:6.25px;stroke-linecap:round;"/><path id="use5003" d="M4018.35,1889.7l0,141.6" style="fill:none;stroke:#000;stroke-width:6.25px;stroke-linecap:round;"/><path id="use5005" d="M4070.81,1889.7l0,141.6" style="fill:none;stroke:#000;stroke-width:6.25px;stroke-linecap:round;"/><path id="use5007" d="M4123.27,1854.06l-0,176.472" style="fill:none;stroke:#000;stroke-width:7.06px;stroke-linecap:round;"/><path id="use5009" d="M4175.73,1889.7l-0,141.6" style="fill:none;stroke:#000;stroke-width:6.25px;stroke-linecap:round;"/><path id="use5011" d="M4228.19,1889.7l-0,141.6" style="fill:none;stroke:#000;stroke-width:6.25px;stroke-linecap:round;"/><path id="use5013" d="M4280.65,1889.7l-0,141.6" style="fill:none;stroke:#000;stroke-width:6.25px;stroke-linecap:round;"/><path id="use5015" d="M4333.11,1889.7l0,141.6" style="fill:none;stroke:#000;stroke-width:6.25px;stroke-linecap:round;"/><path id="use5019" d="M4438.03,1889.7l0,141.6" style="fill:none;stroke:#000;stroke-width:6.25px;stroke-linecap:round;"/><path id="use5021" d="M4490.48,1889.7l0,141.6" style="fill:none;stroke:#000;stroke-width:6.25px;stroke-linecap:round;"/><path id="use5023" d="M4542.94,1889.7l-0,141.6" style="fill:none;stroke:#000;stroke-width:6.25px;stroke-linecap:round;"/><path id="use5025" d="M4595.4,1889.7l0,141.6" style="fill:none;stroke:#000;stroke-width:6.25px;stroke-linecap:round;"/><path id="use5027" d="M4647.86,1854.06l-0,176.472" style="fill:none;stroke:#000;stroke-width:7.06px;stroke-linecap:round;"/><path id="use5029" d="M4700.32,1889.7l-0,141.6" style="fill:none;stroke:#000;stroke-width:6.25px;stroke-linecap:round;"/><path id="use5031" d="M4752.78,1889.7l0,141.6" style="fill:none;stroke:#000;stroke-width:6.25px;stroke-linecap:round;"/><path id="use5033" d="M4805.24,1889.7l-0,141.6" style="fill:none;stroke:#000;stroke-width:6.25px;stroke-linecap:round;"/><path id="use5035" d="M4857.7,1889.7l0,141.6" style="fill:none;stroke:#000;stroke-width:6.25px;stroke-linecap:round;"/><path id="use5039" d="M4962.62,1889.7l-0,141.6" style="fill:none;stroke:#000;stroke-width:6.25px;stroke-linecap:round;"/><path id="use5041" d="M5015.08,1889.7l0,141.6" style="fill:none;stroke:#000;stroke-width:6.25px;stroke-linecap:round;"/><path id="use5043" d="M5067.54,1889.7l-0,141.6" style="fill:none;stroke:#000;stroke-width:6.25px;stroke-linecap:round;"/><path id="use5045" d="M5120,1889.7l-0,141.6" style="fill:none;stroke:#000;stroke-width:6.25px;stroke-linecap:round;"/><path id="use5047" d="M5172.46,1854.06l0,176.472" style="fill:none;stroke:#000;stroke-width:7.06px;stroke-linecap:round;"/><path id="use5049" d="M5224.92,1889.7l-0,141.6" style="fill:none;stroke:#000;stroke-width:6.25px;stroke-linecap:round;"/><path id="use5051" d="M5277.38,1889.7l0,141.6" style="fill:none;stroke:#000;stroke-width:6.25px;stroke-linecap:round;"/><path id="use5053" d="M5329.83,1889.7l0,141.6" style="fill:none;stroke:#000;stroke-width:6.25px;stroke-linecap:round;"/><path id="use5055" d="M5382.29,1889.7l-0,141.6" style="fill:none;stroke:#000;stroke-width:6.25px;stroke-linecap:round;"/><path id="use5059" d="M5487.21,1889.7l-0,141.6" style="fill:none;stroke:#000;stroke-width:6.25px;stroke-linecap:round;"/><path id="use5061" d="M5539.67,1889.7l0,141.6" style="fill:none;stroke:#000;stroke-width:6.25px;stroke-linecap:round;"/><path id="use5063" d="M5592.13,1889.7l0,141.6" style="fill:none;stroke:#000;stroke-width:6.25px;stroke-linecap:round;"/><path id="use5065" d="M5644.59,1889.7l-0,141.6" style="fill:none;stroke:#000;stroke-width:6.25px;stroke-linecap:round;"/><path id="use5067" d="M5697.05,1854.06l0,176.472" style="fill:none;stroke:#000;stroke-width:7.06px;stroke-linecap:round;"/><path id="use5069" d="M5749.51,1889.7l-0,141.6" style="fill:none;stroke:#000;stroke-width:6.25px;stroke-linecap:round;"/><path id="use5071" d="M5801.97,1889.7l-0,141.6" style="fill:none;stroke:#000;stroke-width:6.25px;stroke-linecap:round;"/><path id="use5073" d="M5854.43,1889.7l0,141.6" style="fill:none;stroke:#000;stroke-width:6.25px;stroke-linecap:round;"/><path id="use5075" d="M5906.89,1889.7l-0,141.6" style="fill:none;stroke:#000;stroke-width:6.25px;stroke-linecap:round;"/><path id="use5079" d="M6011.8,1889.7l0,141.6" style="fill:none;stroke:#000;stroke-width:6.25px;stroke-linecap:round;"/><path id="use5081" d="M6064.27,1889.7l-0,141.6" style="fill:none;stroke:#000;stroke-width:6.25px;stroke-linecap:round;"/><path id="use5083" d="M6116.73,1889.7l0,141.6" style="fill:none;stroke:#000;stroke-width:6.25px;stroke-linecap:round;"/><path id="use5085" d="M6169.18,1889.7l-0,141.6" style="fill:none;stroke:#000;stroke-width:6.25px;stroke-linecap:round;"/><path id="use5087" d="M6221.64,1854.06l-0,176.472" style="fill:none;stroke:#000;stroke-width:7.06px;stroke-linecap:round;"/><path id="use5089" d="M6274.1,1889.7l0,141.6" style="fill:none;stroke:#000;stroke-width:6.25px;stroke-linecap:round;"/><path id="use5091" d="M6326.56,1889.7l-0,141.6" style="fill:none;stroke:#000;stroke-width:6.25px;stroke-linecap:round;"/><path id="use5093" d="M6379.02,1889.7l0,141.6" style="fill:none;stroke:#000;stroke-width:6.25px;stroke-linecap:round;"/><path id="use5095" d="M6431.48,1889.7l0,141.6" style="fill:none;stroke:#000;stroke-width:6.25px;stroke-linecap:round;"/><path id="use5099" d="M6536.4,1889.7l0,141.6" style="fill:none;stroke:#000;stroke-width:6.25px;stroke-linecap:round;"/><path id="use5101" d="M6588.86,1889.7l-0,141.6" style="fill:none;stroke:#000;stroke-width:6.25px;stroke-linecap:round;"/><path id="use5103" d="M6641.32,1889.7l0,141.6" style="fill:none;stroke:#000;stroke-width:6.25px;stroke-linecap:round;"/><path id="use5105" d="M6693.78,1889.7l0,141.6" style="fill:none;stroke:#000;stroke-width:6.25px;stroke-linecap:round;"/><path id="use5107" d="M6746.24,1854.06l-0,176.472" style="fill:none;stroke:#000;stroke-width:7.06px;stroke-linecap:round;"/><path id="use5109" d="M6798.7,1889.7l0,141.6" style="fill:none;stroke:#000;stroke-width:6.25px;stroke-linecap:round;"/><path id="use5111" d="M6851.15,1889.7l0,141.6" style="fill:none;stroke:#000;stroke-width:6.25px;stroke-linecap:round;"/><path id="use5113" d="M6903.62,1889.7l-0,141.6" style="fill:none;stroke:#000;stroke-width:6.25px;stroke-linecap:round;"/><path id="use5115" d="M6956.07,1889.7l0,141.6" style="fill:none;stroke:#000;stroke-width:6.25px;stroke-linecap:round;"/><path id="use5119" d="M7061,1889.7l0,141.6" style="fill:none;stroke:#000;stroke-width:6.25px;stroke-linecap:round;"/><path id="use5121" d="M7113.45,1889.7l0,141.6" style="fill:none;stroke:#000;stroke-width:6.25px;stroke-linecap:round;"/><path id="use5123" d="M7165.91,1889.7l-0,141.6" style="fill:none;stroke:#000;stroke-width:6.25px;stroke-linecap:round;"/><path id="use5125" d="M7218.37,1889.7l0,141.6" style="fill:none;stroke:#000;stroke-width:6.25px;stroke-linecap:round;"/><path id="use5127" d="M7270.83,1854.06l0,176.472" style="fill:none;stroke:#000;stroke-width:7.06px;stroke-linecap:round;"/><path id="use5129" d="M7323.29,1889.7l-0,141.6" style="fill:none;stroke:#000;stroke-width:6.25px;stroke-linecap:round;"/><path id="use5131" d="M7375.75,1889.7l0,141.6" style="fill:none;stroke:#000;stroke-width:6.25px;stroke-linecap:round;"/><path id="use5133" d="M7428.21,1889.7l-0,141.6" style="fill:none;stroke:#000;stroke-width:6.25px;stroke-linecap:round;"/><path id="use5135" d="M7480.67,1889.7l-0,141.6" style="fill:none;stroke:#000;stroke-width:6.25px;stroke-linecap:round;"/><path id="use5139" d="M7585.59,1889.7l-0,141.6" style="fill:none;stroke:#000;stroke-width:6.25px;stroke-linecap:round;"/><path id="use5141" d="M7638.05,1889.7l0,141.6" style="fill:none;stroke:#000;stroke-width:6.25px;stroke-linecap:round;"/><path id="use5143" d="M7690.5,1889.7l0,141.6" style="fill:none;stroke:#000;stroke-width:6.25px;stroke-linecap:round;"/><path id="use5145" d="M7742.97,1889.7l-0,141.6" style="fill:none;stroke:#000;stroke-width:6.25px;stroke-linecap:round;"/><path id="use5147" d="M7795.43,1854.06l0,176.472" style="fill:none;stroke:#000;stroke-width:7.06px;stroke-linecap:round;"/><path id="use5149" d="M7847.88,1889.7l-0,141.6" style="fill:none;stroke:#000;stroke-width:6.25px;stroke-linecap:round;"/><path id="use5151" d="M7900.34,1889.7l-0,141.6" style="fill:none;stroke:#000;stroke-width:6.25px;stroke-linecap:round;"/><path id="use5153" d="M7952.8,1889.7l0,141.6" style="fill:none;stroke:#000;stroke-width:6.25px;stroke-linecap:round;"/><path id="use5155" d="M8005.26,1889.7l-0,141.6" style="fill:none;stroke:#000;stroke-width:6.25px;stroke-linecap:round;"/><path id="use5159" d="M8110.18,1889.7l0,141.6" style="fill:none;stroke:#000;stroke-width:6.25px;stroke-linecap:round;"/><path id="use5161" d="M8162.64,1889.7l-0,141.6" style="fill:none;stroke:#000;stroke-width:6.25px;stroke-linecap:round;"/><path id="use5163" d="M8215.1,1889.7l0,141.6" style="fill:none;stroke:#000;stroke-width:6.25px;stroke-linecap:round;"/><path id="use5165" d="M8267.56,1889.7l-0,141.6" style="fill:none;stroke:#000;stroke-width:6.25px;stroke-linecap:round;"/><path id="use5167" d="M8320.02,1854.06l-0,176.472" style="fill:none;stroke:#000;stroke-width:7.06px;stroke-linecap:round;"/><path id="use5169" d="M8372.48,1889.7l0,141.6" style="fill:none;stroke:#000;stroke-width:6.25px;stroke-linecap:round;"/><path id="use5171" d="M8424.94,1889.7l-0,141.6" style="fill:none;stroke:#000;stroke-width:6.25px;stroke-linecap:round;"/><path id="use5173" d="M8477.4,1889.7l0,141.6" style="fill:none;stroke:#000;stroke-width:6.25px;stroke-linecap:round;"/><path id="use5175" d="M8529.85,1889.7l0,141.6" style="fill:none;stroke:#000;stroke-width:6.25px;stroke-linecap:round;"/><path id="use5179" d="M8634.77,1889.7l0,141.6" style="fill:none;stroke:#000;stroke-width:6.25px;stroke-linecap:round;"/><path id="use5181" d="M8687.23,1889.7l-0,141.6" style="fill:none;stroke:#000;stroke-width:6.25px;stroke-linecap:round;"/><path id="use5183" d="M8739.69,1889.7l-0,141.6" style="fill:none;stroke:#000;stroke-width:6.25px;stroke-linecap:round;"/><path id="use5185" d="M8792.15,1889.7l0,141.6" style="fill:none;stroke:#000;stroke-width:6.25px;stroke-linecap:round;"/><path id="use5187" d="M8844.61,1854.06l-0,176.472" style="fill:none;stroke:#000;stroke-width:7.06px;stroke-linecap:round;"/><path id="use5189" d="M8897.07,1889.7l0,141.6" style="fill:none;stroke:#000;stroke-width:6.25px;stroke-linecap:round;"/><path id="use5191" d="M8949.53,1889.7l0,141.6" style="fill:none;stroke:#000;stroke-width:6.25px;stroke-linecap:round;"/><path id="use5193" d="M9001.99,1889.7l-0,141.6" style="fill:none;stroke:#000;stroke-width:6.25px;stroke-linecap:round;"/><path id="use5195" d="M9054.45,1889.7l0,141.6" style="fill:none;stroke:#000;stroke-width:6.25px;stroke-linecap:round;"/><path id="use5199" d="M9159.37,1889.7l-0,141.6" style="fill:none;stroke:#000;stroke-width:6.25px;stroke-linecap:round;"/><path id="use5201" d="M9211.83,1889.7l0,141.6" style="fill:none;stroke:#000;stroke-width:6.25px;stroke-linecap:round;"/><path id="use5203" d="M9264.29,1889.7l-0,141.6" style="fill:none;stroke:#000;stroke-width:6.25px;stroke-linecap:round;"/><path id="use5205" d="M9316.75,1889.7l0,141.6" style="fill:none;stroke:#000;stroke-width:6.25px;stroke-linecap:round;"/><path id="use5207" d="M9369.2,1854.06l0,176.472" style="fill:none;stroke:#000;stroke-width:7.06px;stroke-linecap:round;"/><path id="use5209" d="M9421.67,1889.7l-0,141.6" style="fill:none;stroke:#000;stroke-width:6.25px;stroke-linecap:round;"/><path id="use5211" d="M9474.12,1889.7l0,141.6" style="fill:none;stroke:#000;stroke-width:6.25px;stroke-linecap:round;"/><path id="use5213" d="M9526.58,1889.7l-0,141.6" style="fill:none;stroke:#000;stroke-width:6.25px;stroke-linecap:round;"/><path id="use5215" d="M9579.04,1889.7l-0,141.6" style="fill:none;stroke:#000;stroke-width:6.25px;stroke-linecap:round;"/><path id="use5219" d="M9683.96,1889.7l-0,141.6" style="fill:none;stroke:#000;stroke-width:6.25px;stroke-linecap:round;"/><path id="use5221" d="M9736.42,1889.7l0,141.6" style="fill:none;stroke:#000;stroke-width:6.25px;stroke-linecap:round;"/><path id="use5223" d="M9788.88,1889.7l0,141.6" style="fill:none;stroke:#000;stroke-width:6.25px;stroke-linecap:round;"/><path id="use5225" d="M9841.34,1889.7l-0,141.6" style="fill:none;stroke:#000;stroke-width:6.25px;stroke-linecap:round;"/><path id="use5227" d="M9893.8,1854.06l0,176.472" style="fill:none;stroke:#000;stroke-width:7.06px;stroke-linecap:round;"/><path id="use5229" d="M9946.26,1889.7l-0,141.6" style="fill:none;stroke:#000;stroke-width:6.25px;stroke-linecap:round;"/><path id="use5231" d="M9998.72,1889.7l-0,141.6" style="fill:none;stroke:#000;stroke-width:6.25px;stroke-linecap:round;"/><path id="use5233" d="M10051.2,1889.7l0,141.6" style="fill:none;stroke:#000;stroke-width:6.25px;stroke-linecap:round;"/><path id="use5235" d="M10103.6,1889.7l-0,141.6" style="fill:none;stroke:#000;stroke-width:6.25px;stroke-linecap:round;"/><path id="use5239" d="M10208.6,1889.7l0,141.6" style="fill:none;stroke:#000;stroke-width:6.25px;stroke-linecap:round;"/><path id="use5241" d="M10261,1889.7l-0,141.6" style="fill:none;stroke:#000;stroke-width:6.25px;stroke-linecap:round;"/><path id="use5243" d="M10313.5,1889.7l0,141.6" style="fill:none;stroke:#000;stroke-width:6.25px;stroke-linecap:round;"/><path id="use5245" d="M10365.9,1889.7l-0,141.6" style="fill:none;stroke:#000;stroke-width:6.25px;stroke-linecap:round;"/><path id="use5247" d="M10418.4,1854.06l0,176.472" style="fill:none;stroke:#000;stroke-width:7.06px;stroke-linecap:round;"/><path id="use5249" d="M10470.9,1889.7l0,141.6" style="fill:none;stroke:#000;stroke-width:6.25px;stroke-linecap:round;"/><path id="use5251" d="M10523.3,1889.7l-0,141.6" style="fill:none;stroke:#000;stroke-width:6.25px;stroke-linecap:round;"/><path id="use5253" d="M10575.8,1889.7l0,141.6" style="fill:none;stroke:#000;stroke-width:6.25px;stroke-linecap:round;"/><path id="use5255" d="M10628.2,1889.7l0,141.6" style="fill:none;stroke:#000;stroke-width:6.25px;stroke-linecap:round;"/><g id="text5262"><text x="1197.98px" y="1769.25px" style="font-family:'Consolas', monospace;font-size:150px;">0</text></g><g id="text5266"><text x="1626.26px" y="1842.62px" style="font-family:'ArialMT', 'Arial', sans-serif;font-size:166.667px;">1</text></g><g id="text5270"><text x="2149.5px" y="1842.62px" style="font-family:'ArialMT', 'Arial', sans-serif;font-size:166.667px;">2</text></g><g id="text5274"><text x="2676.37px" y="1842.62px" style="font-family:'ArialMT', 'Arial', sans-serif;font-size:166.667px;">3</text></g><g id="text5278"><text x="3203.97px" y="1842.62px" style="font-family:'ArialMT', 'Arial', sans-serif;font-size:166.667px;">4</text></g><g id="text5282"><text x="3725.13px" y="1842.62px" style="font-family:'ArialMT', 'Arial', sans-serif;font-size:166.667px;">5</text></g><g id="text5286"><text x="4248.38px" y="1842.62px" style="font-family:'ArialMT', 'Arial', sans-serif;font-size:166.667px;">6</text></g><g id="text5290"><text x="4766.23px" y="1842.62px" style="font-family:'ArialMT', 'Arial', sans-serif;font-size:166.667px;">7</text></g><g id="text5294"><text x="5298.18px" y="1842.62px" style="font-family:'ArialMT', 'Arial', sans-serif;font-size:166.667px;">8</text></g><g id="text5298"><text x="5820.07px" y="1842.62px" style="font-family:'ArialMT', 'Arial', sans-serif;font-size:166.667px;">9</text></g><g id="text5302"><text x="6400.57px" y="1842.62px" style="font-family:'ArialMT', 'Arial', sans-serif;font-size:166.667px;">10</text></g><g id="text5306"><text x="6927.87px" y="1842.62px" style="font-family:'ArialMT', 'Arial', sans-serif;font-size:166.667px;">1<tspan x="7008.19px " y="1842.62px ">1</tspan></text></g><g id="text5310"><text x="7450.26px" y="1842.62px" style="font-family:'ArialMT', 'Arial', sans-serif;font-size:166.667px;">12</text></g><g id="text5314"><text x="7977.55px" y="1842.62px" style="font-family:'ArialMT', 'Arial', sans-serif;font-size:166.667px;">13</text></g><g id="text5318"><text x="8502.14px" y="1842.62px" style="font-family:'ArialMT', 'Arial', sans-serif;font-size:166.667px;">14</text></g><g id="text5322"><text x="9026px" y="1842.62px" style="font-family:'ArialMT', 'Arial', sans-serif;font-size:166.667px;">15</text></g><g id="text5326"><text x="9549.56px" y="1842.62px" style="font-family:'ArialMT', 'Arial', sans-serif;font-size:166.667px;">16</text></g><g id="text5330"><text x="10074.1px" y="1842.62px" style="font-family:'ArialMT', 'Arial', sans-serif;font-size:166.667px;">17</text></g><g id="text5334"><text x="10344.8px" y="1821.35px" style="font-family:'ArialMT', 'Arial', sans-serif;font-size:100px;">cm</text></g><path id="path5348" d="M11087.5,1971.15c0.041,14.446 -7.666,27.805 -20.172,35.035c-12.507,7.231 -27.922,7.231 -40.428,0c-12.506,-7.23 -20.198,-20.589 -20.172,-35.035c-0.042,-14.446 7.666,-27.805 20.172,-35.036c12.506,-7.23 27.921,-7.23 40.428,0c12.506,7.231 20.198,20.59 20.172,35.036Z" style="fill:#808080;fill-rule:nonzero;"/><g id="text5351"></g><path id="rect5932" d="M2842.35,1243.29l0.26,200.781l2192.19,0l-0,-200.781l-2192.45,-0Z" style="fill:#e5e5e5;fill-rule:nonzero;stroke:#000;stroke-width:12.5px;stroke-linecap:round;stroke-linejoin:round;"/><g id="text5955"></g><g id="text5959"></g><g id="text5963"></g><g id="text5967"></g><rect id="rect2779" x="2450.24" y="2004.45" width="2586.56" height="424.8" style="fill:#e5e5e5;stroke:#000;stroke-width:12.5px;stroke-linejoin:round;"/><rect id="rect2781" x="2450.3" y="2218.03" width="2586.46" height="211.198" style="fill:#cdcdcd;fill-rule:nonzero;stroke:#000;stroke-width:12.5px;stroke-linejoin:round;"/><path id="path5972" d="M2536.15,2004.8l-0,192.624" style="fill:none;stroke:#000;stroke-width:8.33px;stroke-linecap:round;"/><path id="path5976" d="M2743.08,2003.85l-0,173.553" style="fill:none;stroke:#000;stroke-width:6.25px;stroke-linecap:round;"/><path id="path5978" d="M2642,2005.76l-0,117.291" style="fill:none;stroke:#000;stroke-width:4.17px;stroke-linecap:round;"/><path id="path5980" d="M2946.19,2003.85l0,173.553" style="fill:none;stroke:#000;stroke-width:6.25px;stroke-linecap:round;"/><path id="path5982" d="M2845.11,2005.76l0,117.291" style="fill:none;stroke:#000;stroke-width:4.17px;stroke-linecap:round;"/><path id="path5984" d="M3151.21,2003.85l-0,173.553" style="fill:none;stroke:#000;stroke-width:6.25px;stroke-linecap:round;"/><path id="path5986" d="M3050.13,2005.76l-0,117.291" style="fill:none;stroke:#000;stroke-width:4.17px;stroke-linecap:round;"/><path id="path5988" d="M3356.23,2003.85l0,173.553" style="fill:none;stroke:#000;stroke-width:6.25px;stroke-linecap:round;"/><path id="path5990" d="M3255.15,2005.76l0,117.291" style="fill:none;stroke:#000;stroke-width:4.17px;stroke-linecap:round;"/><path id="path5992" d="M3561.25,2003.85l0,173.553" style="fill:none;stroke:#000;stroke-width:6.25px;stroke-linecap:round;"/><path id="path5994" d="M3460.17,2005.76l0,117.291" style="fill:none;stroke:#000;stroke-width:4.17px;stroke-linecap:round;"/><path id="path5996" d="M3763.41,2003.85l0,173.553" style="fill:none;stroke:#000;stroke-width:6.25px;stroke-linecap:round;"/><path id="path5998" d="M3662.33,2005.76l0,117.291" style="fill:none;stroke:#000;stroke-width:4.17px;stroke-linecap:round;"/><path id="path6000" d="M3968.43,2003.85l-0,173.553" style="fill:none;stroke:#000;stroke-width:6.25px;stroke-linecap:round;"/><path id="path6002" d="M3867.35,2005.76l-0,117.291" style="fill:none;stroke:#000;stroke-width:4.17px;stroke-linecap:round;"/><path id="path6004" d="M4172.5,2003.85l-0,173.553" style="fill:none;stroke:#000;stroke-width:6.25px;stroke-linecap:round;"/><path id="path6006" d="M4071.42,2005.76l-0,117.291" style="fill:none;stroke:#000;stroke-width:4.17px;stroke-linecap:round;"/><path id="path6008" d="M4377.52,2003.85l0,173.553" style="fill:none;stroke:#000;stroke-width:6.25px;stroke-linecap:round;"/><path id="path6010" d="M4276.44,2005.76l0,117.291" style="fill:none;stroke:#000;stroke-width:4.17px;stroke-linecap:round;"/><path id="path6014" d="M4483.37,2005.76l0,117.291" style="fill:none;stroke:#000;stroke-width:4.17px;stroke-linecap:round;"/><path id="path6018" d="M4584.45,2004.8l0,192.624" style="fill:none;stroke:#000;stroke-width:8.33px;stroke-linecap:round;"/><g id="text6020"><text x="2557.13px" y="2184.08px" style="font-family:'ArialMT', 'Arial', sans-serif;font-size:100px;">0</text></g><g id="text6024"><text x="2674.27px" y="2184.08px" style="font-family:'ArialMT', 'Arial', sans-serif;font-size:100px;">1</text></g><g id="text6028"><text x="2878.33px" y="2183.12px" style="font-family:'ArialMT', 'Arial', sans-serif;font-size:100px;">2</text></g><g id="text6032"><text x="3080.49px" y="2181.22px" style="font-family:'ArialMT', 'Arial', sans-serif;font-size:100px;">3</text></g><g id="text6036"><text x="3286.47px" y="2183.12px" style="font-family:'ArialMT', 'Arial', sans-serif;font-size:100px;">4</text></g><g id="text6040"><text x="3489.58px" y="2179.31px" style="font-family:'ArialMT', 'Arial', sans-serif;font-size:100px;">5</text></g><g id="text6044"><text x="3694.6px" y="2182.17px" style="font-family:'ArialMT', 'Arial', sans-serif;font-size:100px;">6</text></g><g id="text6048"><text x="3899.62px" y="2182.17px" style="font-family:'ArialMT', 'Arial', sans-serif;font-size:100px;">7</text></g><g id="text6052"><text x="4101.78px" y="2184.08px" style="font-family:'ArialMT', 'Arial', sans-serif;font-size:100px;">8</text></g><g id="text6056"><text x="4306.8px" y="2184.08px" style="font-family:'ArialMT', 'Arial', sans-serif;font-size:100px;">9</text></g><g id="text6060"><text x="4508.96px" y="2183.92px" style="font-family:'ArialMT', 'Arial', sans-serif;font-size:100px;">0</text></g><g id="text6064"><text x="4693.59px" y="2136.4px" style="font-family:'ArialMT', 'Arial', sans-serif;font-size:91.667px;">1/20</text></g><path id="path6074" d="M3798.7,2530.68c-0,17.906 -14.516,32.421 -32.422,32.421c-17.906,0 -32.422,-14.515 -32.422,-32.421c-0,-17.907 14.516,-32.422 32.422,-32.422c17.906,-0 32.422,14.515 32.422,32.422Z" style="fill:#808080;fill-rule:nonzero;"/><path id="path6076" d="M1445.25,3288.15l-566.429,0" style="fill:none;stroke:#000;stroke-width:8.33px;"/><path id="path6258" d="M1933.24,3288.15l566.429,0" style="fill:none;stroke:#000;stroke-width:8.33px;"/><path id="path6264" d="M1833.78,3298.73c0,80.051 -64.894,144.945 -144.945,144.945c-80.051,-0 -144.945,-64.894 -144.945,-144.945c0,-80.051 64.894,-144.945 144.945,-144.945c80.051,0 144.945,64.894 144.945,144.945Z" style="fill:#fff;fill-rule:nonzero;stroke:#000;stroke-width:8.33px;stroke-linecap:round;stroke-linejoin:round;"/><g id="text6260"></g><path id="path6267" d="M1450.83,407.229l-288.623,0" style="fill:none;stroke:#000;stroke-width:8.33px;stroke-linecap:round;"/><path id="path6269" d="M1913.2,409.313l299.412,-0" style="fill:none;stroke:#000;stroke-width:8.33px;stroke-linecap:round;"/><g id="g3546"><path id="path6271" d="M1827.53,410.516c0,80.05 -64.894,144.944 -144.945,144.944c-80.051,0 -144.945,-64.894 -144.945,-144.944c0,-80.051 64.894,-144.945 144.945,-144.945c80.051,-0 144.945,64.894 144.945,144.945Z" style="fill:#fff;fill-rule:nonzero;stroke:#000;stroke-width:8.33px;stroke-linecap:round;stroke-linejoin:round;"/></g><g id="text6277"></g><g id="text6281"></g><g id="text6285"></g><g id="text6289"></g><g id="text6293"></g><g id="text6297"></g><g id="text6309"></g><g id="g6517"></g><path id="path6342" d="M11812,2332.52l-0,-623.04" style="fill:none;stroke:#000;stroke-width:8.33px;stroke-linecap:round;"/><g id="g6469"><path id="path6344" d="M11961,2556.5c0,-81.183 -65.812,-146.995 -146.994,-146.995c-81.183,0 -146.995,65.812 -146.995,146.995c0,81.183 65.812,146.994 146.995,146.994c81.182,0 146.994,-65.811 146.994,-146.994Z" style="fill:#fff;fill-rule:nonzero;stroke:#000;stroke-width:8.33px;stroke-linecap:round;stroke-linejoin:round;"/></g><g id="text6354"></g><path id="path6367" d="M6218.89,2676.32l0,-1008.73" style="fill:none;stroke:#000;stroke-width:8.33px;stroke-linecap:round;"/><g id="g6504"><path id="path6390" d="M3574.02,3297.69c0,-81.183 -65.811,-146.995 -146.994,-146.995c-81.183,0 -146.994,65.812 -146.994,146.995c-0,81.182 65.811,146.994 146.994,146.994c81.183,0 146.994,-65.812 146.994,-146.994Z" style="fill:#fff;fill-rule:nonzero;stroke:#000;stroke-width:8.33px;stroke-linecap:round;stroke-linejoin:round;"/></g><g id="g6486"><path id="path6369" d="M6375.26,2906.55c-0,-81.183 -65.812,-146.994 -146.994,-146.994c-81.183,-0 -146.995,65.811 -146.995,146.994c0,81.183 65.812,146.994 146.995,146.994c81.182,0 146.994,-65.811 146.994,-146.994Z" style="fill:#fff;fill-rule:nonzero;stroke:#000;stroke-width:8.33px;stroke-linecap:round;stroke-linejoin:round;"/><text x="6151.83px" y="3003.43px" style="font-family:'Arial-BoldMT', 'Arial', sans-serif;font-weight:700;font-size:266.667px;">1</text><text x="11733.2px" y="2647.81px" style="font-family:'Arial-BoldMT', 'Arial', sans-serif;font-weight:700;font-size:266.667px;">4</text><text x="1612.9px" y="3390.93px" style="font-family:'Arial-BoldMT', 'Arial', sans-serif;font-weight:700;font-size:266.667px;">2</text><text x="1608.73px" y="504.514px" style="font-family:'Arial-BoldMT', 'Arial', sans-serif;font-weight:700;font-size:266.667px;">3</text><text x="3351.91px" y="3390.21px" style="font-family:'Arial-BoldMT', 'Arial', sans-serif;font-weight:700;font-size:266.667px;">5</text></g><g id="g6536"></g><path id="path6388" d="M3417.65,3072.36l-0,-917.03" style="fill:none;stroke:#000;stroke-width:8.33px;stroke-linecap:round;"/><g id="g6669"></g></svg>